<?xml version="1.0" encoding="UTF-8" standalone="no"?>
<!DOCTYPE svg PUBLIC "-//W3C//DTD SVG 1.1//EN" "http://www.w3.org/Graphics/SVG/1.1/DTD/svg11.dtd">
<svg width="100%" height="100%" viewBox="0 0 310 205" version="1.1" xmlns="http://www.w3.org/2000/svg" xmlns:xlink="http://www.w3.org/1999/xlink" xml:space="preserve" xmlns:serif="http://www.serif.com/" style="fill-rule:evenodd;clip-rule:evenodd;stroke-linejoin:round;stroke-miterlimit:2;">
    <g transform="matrix(1,0,0,1,-662.622,-812.369)">
        <g transform="matrix(0.385237,0,0,0.394902,353.02,780.632)">
            <path d="M905.227,582.392C990.718,582.392 1112.2,517.47 1159.13,472.474C1166.2,466.046 1174.55,471.189 1168.13,478.259C1105.78,547.681 991.361,599.105 912.941,599.105C846.091,599.105 803.667,559.252 803.667,506.542C803.667,470.546 813.309,392.125 913.584,264.208C1010.64,140.148 1104.49,80.368 1169.41,80.368C1193.84,80.368 1207.98,93.867 1207.98,116.365C1207.98,138.863 1182.91,150.433 1189.98,136.934C1197.05,123.436 1199.62,95.795 1170.7,95.795C1139.2,95.795 1036.36,140.791 923.868,279.635C846.734,374.126 816.523,448.048 816.523,506.542C816.523,554.109 865.375,582.392 905.227,582.392ZM1396.96,450.619C1380.25,450.619 1381.53,434.549 1389.24,390.839C1397.6,344.558 1398.89,338.773 1395.67,337.487C1391.17,334.916 1368.67,357.414 1351.96,377.983C1331.39,403.052 1321.75,409.48 1314.04,408.195C1306.97,406.909 1305.04,399.195 1313.4,354.2C1320.47,318.846 1321.75,298.276 1316.61,295.062C1309.54,291.206 1301.18,297.634 1265.83,354.2C1227.26,417.836 1218.91,446.762 1208.62,446.762C1202.84,446.762 1200.91,441.62 1202.19,432.621C1207.98,397.91 1210.55,359.985 1211.19,345.843C1211.84,332.987 1229.19,332.987 1227.9,347.129C1225.98,361.913 1219.55,392.125 1216.34,410.123C1215.05,419.765 1229.19,393.41 1255.55,349.057C1288.33,295.062 1303.75,278.992 1317.89,281.564C1336.54,285.42 1332.04,312.418 1324.32,354.842L1318.54,386.339C1316.61,396.624 1320.47,399.195 1328.82,388.911C1332.68,385.054 1337.82,379.911 1342.32,374.126C1366.1,345.2 1389.24,322.06 1399.53,322.06C1406.6,322.06 1410.46,329.131 1410.46,336.201C1410.46,343.272 1407.88,361.913 1401.46,391.482C1393.1,430.05 1393.74,439.692 1399.53,439.692C1429.74,439.692 1512.66,390.839 1598.15,338.772C1601.36,336.844 1613.58,340.701 1603.29,347.129C1544.15,385.697 1439.38,450.619 1396.96,450.619Z" style="fill:url(#_Linear1);"/>
        </g>
    </g>
    <defs>
        <linearGradient id="_Linear1" x1="0" y1="0" x2="1" y2="0" gradientUnits="userSpaceOnUse" gradientTransform="matrix(803.665,0,0,518.737,803.667,339.737)"><stop offset="0" style="stop-color:rgb(151,98,83);stop-opacity:1"/><stop offset="0.22" style="stop-color:rgb(178,125,109);stop-opacity:1"/><stop offset="0.48" style="stop-color:rgb(249,194,176);stop-opacity:1"/><stop offset="0.76" style="stop-color:rgb(179,126,110);stop-opacity:1"/><stop offset="1" style="stop-color:rgb(151,98,83);stop-opacity:1"/></linearGradient>
    </defs>
</svg>
